<?xml version="1.0" encoding="UTF-8"?>
<svg xmlns="http://www.w3.org/2000/svg" viewBox="0 0 620 720"
     font-family="-apple-system,BlinkMacSystemFont,'Segoe UI',Roboto,Helvetica,Arial,sans-serif">
<defs>
  <marker id="arr" markerWidth="8" markerHeight="6" refX="7" refY="3" orient="auto">
    <polygon points="0 0,8 3,0 6" fill="#4B5563"/>
  </marker>
  <marker id="arr-l" markerWidth="8" markerHeight="6" refX="7" refY="3" orient="auto">
    <polygon points="0 0,8 3,0 6" fill="#9CA3AF"/>
  </marker>
  <marker id="arr-p" markerWidth="8" markerHeight="6" refX="7" refY="3" orient="auto">
    <polygon points="0 0,8 3,0 6" fill="#7C3AED"/>
  </marker>
</defs>

<rect width="620" height="720" fill="#FAFAFA"/>

<!-- Title -->
<text x="310" y="30" text-anchor="middle" font-size="18" font-weight="700" fill="#5B21B6">Research Lifecycle</text>
<text x="310" y="48" text-anchor="middle" font-size="11" fill="#6B7280">Drive (single agent) and Fleet (multi-agent perspectives)</text>

<!-- ═══ INBOX ═══ -->
<rect x="200" y="68" width="220" height="48" rx="7" fill="#EDE9FE" stroke="#C4B5FD" stroke-width="1.5"/>
<text x="310" y="86" text-anchor="middle" font-size="14" font-weight="600" fill="#5B21B6">Inbox</text>
<text x="310" y="101" text-anchor="middle" font-size="10" fill="#7C3AED" font-style="italic">research-create</text>

<!-- Arrow -->
<line x1="310" y1="116" x2="310" y2="148" stroke="#4B5563" stroke-width="1.5" marker-end="url(#arr)"/>
<text x="320" y="138" font-size="10" fill="#6B7280">research-prioritise</text>

<!-- ═══ BACKLOG ═══ -->
<rect x="200" y="150" width="220" height="48" rx="7" fill="#FFE4E6" stroke="#FDA4AF" stroke-width="1.5"/>
<text x="310" y="168" text-anchor="middle" font-size="14" font-weight="600" fill="#9F1239">Backlog</text>
<text x="310" y="183" text-anchor="middle" font-size="10" fill="#E11D48" font-style="italic">ID assigned</text>

<!-- Arrow -->
<line x1="310" y1="198" x2="310" y2="230" stroke="#4B5563" stroke-width="1.5" marker-end="url(#arr)"/>
<text x="320" y="220" font-size="10" fill="#6B7280">research-setup</text>

<!-- ═══ IN-PROGRESS ═══ -->
<rect x="200" y="232" width="220" height="48" rx="7" fill="#E0E7FF" stroke="#A5B4FC" stroke-width="1.5"/>
<text x="310" y="250" text-anchor="middle" font-size="14" font-weight="600" fill="#3730A3">In Progress</text>
<text x="310" y="265" text-anchor="middle" font-size="10" fill="#6366F1" font-style="italic">research-do</text>

<!-- ═══ MODE FORK ═══ -->
<line x1="310" y1="280" x2="310" y2="310" stroke="#4B5563" stroke-width="1.5"/>
<circle cx="310" cy="310" r="4" fill="#4B5563"/>

<!-- ═══ DRIVE PATH (left) ═══ -->
<line x1="310" y1="310" x2="160" y2="355" stroke="#4B5563" stroke-width="1.5" marker-end="url(#arr)"/>
<text x="190" y="326" font-size="11" font-weight="600" fill="#374151">Drive</text>
<text x="190" y="338" font-size="9" fill="#6B7280">single agent</text>

<!-- Single agent box -->
<rect x="70" y="357" width="180" height="56" rx="7" fill="#FEF3C7" stroke="#FCD34D" stroke-width="1.5"/>
<text x="160" y="377" text-anchor="middle" font-size="12" font-weight="600" fill="#92400E">Agent researches</text>
<text x="160" y="393" text-anchor="middle" font-size="10" fill="#B45309">research-do</text>
<text x="160" y="407" text-anchor="middle" font-size="10" fill="#B45309">writes findings in topic file</text>

<!-- Drive → Done -->
<line x1="160" y1="413" x2="160" y2="445" stroke="#4B5563" stroke-width="1.5"/>
<path d="M 160 445 C 160 475 310 475 310 502" fill="none" stroke="#4B5563" stroke-width="1.5" marker-end="url(#arr)"/>
<text x="170" y="440" font-size="10" fill="#6B7280">research-close</text>

<!-- ═══ FLEET PATH (right) ═══ -->
<line x1="310" y1="310" x2="460" y2="355" stroke="#7C3AED" stroke-width="1.5" marker-end="url(#arr-p)"/>
<text x="420" y="326" font-size="11" font-weight="600" fill="#5B21B6">Fleet</text>
<text x="420" y="338" font-size="9" fill="#7C3AED">multi-agent</text>

<!-- Parallel agents panel -->
<rect x="350" y="357" width="250" height="110" rx="7" fill="#F5F3FF" stroke="#C4B5FD" stroke-width="1.5"/>
<text x="475" y="375" text-anchor="middle" font-size="11" font-weight="600" fill="#5B21B6">Parallel Findings</text>
<text x="475" y="389" text-anchor="middle" font-size="9" fill="#7C3AED" font-style="italic">same repo, separate files</text>

<!-- Three parallel agent boxes -->
<rect x="362" y="398" width="68" height="42" rx="5" fill="#EDE9FE" stroke="#7C3AED" stroke-width="1"/>
<text x="396" y="414" text-anchor="middle" font-size="10" font-weight="600" fill="#5B21B6">cc</text>
<text x="396" y="430" text-anchor="middle" font-size="8" fill="#7C3AED">findings.md</text>

<rect x="440" y="398" width="68" height="42" rx="5" fill="#EDE9FE" stroke="#7C3AED" stroke-width="1"/>
<text x="474" y="414" text-anchor="middle" font-size="10" font-weight="600" fill="#5B21B6">gg</text>
<text x="474" y="430" text-anchor="middle" font-size="8" fill="#7C3AED">findings.md</text>

<rect x="518" y="398" width="68" height="42" rx="5" fill="#EDE9FE" stroke="#7C3AED" stroke-width="1"/>
<text x="552" y="414" text-anchor="middle" font-size="10" font-weight="600" fill="#5B21B6">cx</text>
<text x="552" y="430" text-anchor="middle" font-size="8" fill="#7C3AED">findings.md</text>

<!-- Submitted badges -->
<text x="396" y="452" text-anchor="middle" font-size="8" fill="#059669">submitted</text>
<text x="474" y="452" text-anchor="middle" font-size="8" fill="#059669">submitted</text>
<text x="552" y="452" text-anchor="middle" font-size="8" fill="#059669">submitted</text>

<!-- Converge -->
<line x1="396" y1="458" x2="475" y2="466" stroke="#6B7280" stroke-width="0.8"/>
<line x1="474" y1="458" x2="475" y2="466" stroke="#6B7280" stroke-width="0.8"/>
<line x1="552" y1="458" x2="475" y2="466" stroke="#6B7280" stroke-width="0.8"/>

<!-- Fleet → Synthesize -->
<line x1="475" y1="467" x2="475" y2="502" stroke="#7C3AED" stroke-width="1.5" marker-end="url(#arr-p)"/>
<text x="490" y="490" font-size="10" fill="#7C3AED">all submitted</text>

<!-- ═══ SYNTHESIZE (Fleet only) ═══ -->
<rect x="375" y="504" width="200" height="48" rx="7" fill="#F5F3FF" stroke="#C4B5FD" stroke-width="1.5"/>
<text x="475" y="522" text-anchor="middle" font-size="13" font-weight="600" fill="#5B21B6">Synthesize</text>
<text x="475" y="537" text-anchor="middle" font-size="10" fill="#7C3AED" font-style="italic">research-synthesize</text>

<!-- Synthesize → Done -->
<path d="M 475 552 C 475 578 310 578 310 602" fill="none" stroke="#4B5563" stroke-width="1.5" marker-end="url(#arr)"/>
<text x="410" y="572" font-size="10" fill="#6B7280">research-close</text>

<!-- ═══ DONE ═══ -->
<rect x="220" y="504" width="180" height="48" rx="7" fill="#DCFCE7" stroke="#86EFAC" stroke-width="1.5"/>
<text x="310" y="522" text-anchor="middle" font-size="14" font-weight="600" fill="#166534">Done</text>
<text x="310" y="537" text-anchor="middle" font-size="10" fill="#16A34A" font-style="italic">findings complete</text>

<!-- ═══ PAUSED (side state) ═══ -->
<rect x="30" y="232" width="140" height="42" rx="7" fill="#F3F4F6" stroke="#D1D5DB" stroke-width="1.5" stroke-dasharray="5,3"/>
<text x="100" y="253" text-anchor="middle" dominant-baseline="central" font-size="13" font-weight="600" fill="#6B7280">Paused</text>

<!-- In-progress → Paused -->
<line x1="200" y1="252" x2="172" y2="252" stroke="#9CA3AF" stroke-width="1" stroke-dasharray="4,3" marker-end="url(#arr-l)"/>
<text x="186" y="242" text-anchor="middle" font-size="8" fill="#9CA3AF">pause</text>

<!-- Paused → In-progress -->
<line x1="170" y1="262" x2="200" y2="262" stroke="#9CA3AF" stroke-width="1" stroke-dasharray="4,3" marker-end="url(#arr-l)"/>
<text x="186" y="275" text-anchor="middle" font-size="8" fill="#9CA3AF">resume</text>

<!-- ═══ LEGEND ═══ -->
<rect x="30" y="660" width="560" height="46" rx="6" fill="#F9FAFB" stroke="#E5E7EB" stroke-width="1"/>
<line x1="50" y1="680" x2="88" y2="680" stroke="#4B5563" stroke-width="1.5" marker-end="url(#arr)"/>
<text x="96" y="680" dominant-baseline="central" font-size="10" fill="#374151">transition</text>
<line x1="180" y1="680" x2="218" y2="680" stroke="#9CA3AF" stroke-width="1" stroke-dasharray="4,3" marker-end="url(#arr-l)"/>
<text x="226" y="680" dominant-baseline="central" font-size="10" fill="#374151">optional / pause</text>
<line x1="350" y1="680" x2="388" y2="680" stroke="#7C3AED" stroke-width="1.5" marker-end="url(#arr-p)"/>
<text x="396" y="680" dominant-baseline="central" font-size="10" fill="#374151">Fleet-only path</text>
<text x="50" y="696" font-size="10" fill="#6B7280" font-style="italic">Drive = one agent writes directly in topic file  /  Fleet = multiple agents write separate findings files, then synthesize</text>

</svg>
