<?xml version="1.0" encoding="UTF-8"?>
<svg xmlns="http://www.w3.org/2000/svg" viewBox="0 0 1600 1040"
     font-family="-apple-system,BlinkMacSystemFont,'Segoe UI',Roboto,Helvetica,Arial,sans-serif">
<defs>
  <marker id="arr-b" markerWidth="8" markerHeight="6" refX="7" refY="3" orient="auto"><polygon points="0 0,8 3,0 6" fill="#2563EB"/></marker>
  <marker id="arr-p" markerWidth="8" markerHeight="6" refX="7" refY="3" orient="auto"><polygon points="0 0,8 3,0 6" fill="#7C3AED"/></marker>
  <marker id="arr-g" markerWidth="8" markerHeight="6" refX="7" refY="3" orient="auto"><polygon points="0 0,8 3,0 6" fill="#059669"/></marker>
  <marker id="arr-a" markerWidth="8" markerHeight="6" refX="7" refY="3" orient="auto"><polygon points="0 0,8 3,0 6" fill="#B45309"/></marker>
  <marker id="arr-r" markerWidth="8" markerHeight="6" refX="7" refY="3" orient="auto"><polygon points="0 0,8 3,0 6" fill="#DC2626"/></marker>
</defs>

<!-- Background -->
<rect width="1600" height="1040" fill="#F9FAFB"/>

<!-- TITLE -->
<text x="800" y="34" text-anchor="middle" font-size="22" font-weight="700" fill="#111827">Aigon Workflow State Machine</text>
<text x="800" y="56" text-anchor="middle" font-size="12" fill="#6B7280">Stage transitions · in-state actions · worktree fork/join (Fleet mode)</text>

<!-- ═══════════════════════════════════════════════════════════════════ -->
<!-- FEATURES                                                            -->
<!-- ═══════════════════════════════════════════════════════════════════ -->
<rect x="12" y="68" width="1576" height="472" rx="10" fill="#EFF6FF" stroke="#BFDBFE" stroke-width="1.5"/>
<text x="30" y="94" font-size="13" font-weight="700" fill="#1E40AF" letter-spacing="0.5">FEATURES</text>

<!-- MAIN PIPELINE y_center=154; labels sit ABOVE boxes (top=136) at y~114-130 -->
<circle cx="50" cy="154" r="9" fill="#2563EB"/>
<line x1="59" y1="154" x2="66" y2="154" stroke="#2563EB" stroke-width="1.5" marker-end="url(#arr-b)"/>

<!-- inbox x=68-156 -->
<rect x="68" y="136" width="88" height="36" rx="7" fill="#DBEAFE" stroke="#3B82F6" stroke-width="1.5"/>
<text x="112" y="154" text-anchor="middle" dominant-baseline="central" font-size="13" font-weight="600" fill="#1E40AF">inbox</text>

<!-- inbox→backlog gap=102 -->
<line x1="156" y1="154" x2="258" y2="154" stroke="#2563EB" stroke-width="1.5" marker-end="url(#arr-b)"/>
<rect x="155" y="112" width="106" height="18" rx="3" fill="#EFF6FF" stroke="#BFDBFE" stroke-width="0.5"/>
<text x="208" y="121" text-anchor="middle" dominant-baseline="central" font-size="10" fill="#1D4ED8">feature-prioritise</text>

<!-- backlog x=260-356 -->
<rect x="260" y="136" width="96" height="36" rx="7" fill="#DBEAFE" stroke="#3B82F6" stroke-width="1.5"/>
<text x="308" y="154" text-anchor="middle" dominant-baseline="central" font-size="13" font-weight="600" fill="#1E40AF">backlog</text>

<!-- backlog→in-progress gap=104 -->
<line x1="356" y1="154" x2="460" y2="154" stroke="#2563EB" stroke-width="1.5" marker-end="url(#arr-b)"/>
<rect x="355" y="112" width="106" height="18" rx="3" fill="#EFF6FF" stroke="#BFDBFE" stroke-width="0.5"/>
<text x="408" y="121" text-anchor="middle" dominant-baseline="central" font-size="10" fill="#1D4ED8">feature-setup</text>

<!-- in-progress x=462-588 -->
<rect x="462" y="136" width="126" height="36" rx="7" fill="#DBEAFE" stroke="#3B82F6" stroke-width="1.5"/>
<text x="525" y="154" text-anchor="middle" dominant-baseline="central" font-size="13" font-weight="600" fill="#1E40AF">in‑progress</text>

<!-- in-progress→in-evaluation gap=108 -->
<line x1="588" y1="154" x2="696" y2="154" stroke="#2563EB" stroke-width="1.5" marker-end="url(#arr-b)"/>
<rect x="578" y="107" width="124" height="30" rx="3" fill="#EFF6FF" stroke="#BFDBFE" stroke-width="0.5"/>
<text x="640" y="117" text-anchor="middle" dominant-baseline="central" font-size="10" fill="#1D4ED8">feature-eval</text>
<text x="640" y="130" text-anchor="middle" dominant-baseline="central" font-size="9" fill="#3B82F6" font-style="italic">Fleet · all submitted</text>

<!-- in-evaluation x=698-846 -->
<rect x="698" y="136" width="148" height="36" rx="7" fill="#DBEAFE" stroke="#3B82F6" stroke-width="1.5"/>
<text x="772" y="154" text-anchor="middle" dominant-baseline="central" font-size="13" font-weight="600" fill="#1E40AF">in‑evaluation</text>

<!-- in-evaluation→done gap=104 -->
<line x1="846" y1="154" x2="950" y2="154" stroke="#2563EB" stroke-width="1.5" marker-end="url(#arr-b)"/>
<rect x="832" y="112" width="130" height="18" rx="3" fill="#EFF6FF" stroke="#BFDBFE" stroke-width="0.5"/>
<text x="897" y="121" text-anchor="middle" dominant-baseline="central" font-size="10" fill="#1D4ED8">feature-close [winner]</text>

<!-- done x=952-1032 -->
<rect x="952" y="136" width="80" height="36" rx="7" fill="#DCFCE7" stroke="#16A34A" stroke-width="1.5"/>
<text x="992" y="154" text-anchor="middle" dominant-baseline="central" font-size="13" font-weight="600" fill="#15803D">done</text>

<!-- feature-review self-loop -->
<path d="M 492 136 C 492 84 558 84 558 136" fill="none" stroke="#2563EB" stroke-width="1.5" stroke-dasharray="4,3" marker-end="url(#arr-b)"/>
<rect x="480" y="75" width="90" height="15" rx="3" fill="#EFF6FF" stroke="#BFDBFE" stroke-width="0.5"/>
<text x="525" y="82" text-anchor="middle" dominant-baseline="central" font-size="10" fill="#1D4ED8">feature-review</text>

<!-- Drive shortcut below -->
<path d="M 525 172 C 525 228 992 228 992 172" fill="none" stroke="#2563EB" stroke-width="1.5" stroke-dasharray="5,3" marker-end="url(#arr-b)"/>
<rect x="622" y="221" width="206" height="16" rx="3" fill="#EFF6FF" stroke="#BFDBFE" stroke-width="0.5"/>
<text x="725" y="229" text-anchor="middle" dominant-baseline="central" font-size="10" fill="#1D4ED8">feature-close [Drive · solo submitted]</text>

<!-- FLEET PANEL -->
<rect x="1062" y="82" width="514" height="328" rx="8" fill="white" stroke="#BFDBFE" stroke-width="1"/>
<text x="1082" y="104" font-size="12" font-weight="700" fill="#1E40AF">Fleet Mode  ·  Worktree Fork / Join</text>
<text x="1082" y="122" font-size="11" fill="#374151" font-weight="600">feature-setup 42 cc gg cx</text>
<text x="1082" y="138" font-size="10" fill="#6B7280">Creates isolated worktrees — each agent gets its own branch and directory.</text>

<rect x="1082" y="150" width="110" height="28" rx="5" fill="#DBEAFE" stroke="#3B82F6" stroke-width="1"/>
<text x="1137" y="164" text-anchor="middle" dominant-baseline="central" font-size="11" fill="#1E40AF">worktree-cc</text>
<rect x="1206" y="150" width="110" height="28" rx="5" fill="#EDE9FE" stroke="#7C3AED" stroke-width="1"/>
<text x="1261" y="164" text-anchor="middle" dominant-baseline="central" font-size="11" fill="#5B21B6">worktree-gg</text>
<rect x="1330" y="150" width="110" height="28" rx="5" fill="#FEF3C7" stroke="#D97706" stroke-width="1"/>
<text x="1385" y="164" text-anchor="middle" dominant-baseline="central" font-size="11" fill="#92400E">worktree-cx</text>

<text x="1137" y="192" text-anchor="middle" font-size="9" fill="#374151">feature-do → feature-submit</text>
<text x="1261" y="192" text-anchor="middle" font-size="9" fill="#374151">feature-do → feature-submit</text>
<text x="1385" y="192" text-anchor="middle" font-size="9" fill="#374151">feature-do → feature-submit</text>

<rect x="1104" y="200" width="66" height="17" rx="4" fill="#FEF3C7" stroke="#D97706" stroke-width="1"/>
<text x="1137" y="208" text-anchor="middle" dominant-baseline="central" font-size="9" fill="#92400E">submitted ✓</text>
<rect x="1228" y="200" width="66" height="17" rx="4" fill="#FEF3C7" stroke="#D97706" stroke-width="1"/>
<text x="1261" y="208" text-anchor="middle" dominant-baseline="central" font-size="9" fill="#92400E">submitted ✓</text>
<rect x="1352" y="200" width="66" height="17" rx="4" fill="#FEF3C7" stroke="#D97706" stroke-width="1"/>
<text x="1385" y="208" text-anchor="middle" dominant-baseline="central" font-size="9" fill="#92400E">submitted ✓</text>

<path d="M 1137 217 L 1261 233 M 1261 217 L 1261 233 M 1385 217 L 1261 233" fill="none" stroke="#6B7280" stroke-width="1"/>
<line x1="1261" y1="233" x2="1261" y2="246" stroke="#2563EB" stroke-width="1.5" marker-end="url(#arr-b)"/>
<rect x="1184" y="246" width="154" height="28" rx="5" fill="#DBEAFE" stroke="#3B82F6" stroke-width="1"/>
<text x="1261" y="255" text-anchor="middle" dominant-baseline="central" font-size="10" fill="#1E40AF" font-weight="600">feature-eval</text>
<text x="1261" y="267" text-anchor="middle" dominant-baseline="central" font-size="9" fill="#3B82F6">runs from main repo</text>
<line x1="1261" y1="274" x2="1261" y2="288" stroke="#2563EB" stroke-width="1.5" marker-end="url(#arr-b)"/>
<rect x="1184" y="288" width="154" height="28" rx="5" fill="#DCFCE7" stroke="#16A34A" stroke-width="1"/>
<text x="1261" y="297" text-anchor="middle" dominant-baseline="central" font-size="10" fill="#15803D" font-weight="600">feature-close cc</text>
<text x="1261" y="309" text-anchor="middle" dominant-baseline="central" font-size="9" fill="#16A34A">merges winner → main</text>
<text x="1082" y="340" font-size="10" fill="#6B7280" font-style="italic">feature-cleanup removes losing worktrees.</text>
<text x="1082" y="354" font-size="10" fill="#6B7280" font-style="italic">Each worktree state is fully independent</text>
<text x="1082" y="368" font-size="10" fill="#6B7280" font-style="italic">until merged. Guards check all submitted.</text>

<!-- ═══════════════════════════════════════════════════════════════════ -->
<!-- AGENT STATUS — redesigned layout                                    -->
<!-- "waiting" is placed ABOVE implementing so implementing→submitted   -->
<!-- is a clean horizontal with zero crossings. Error arcs go below.    -->
<!-- ═══════════════════════════════════════════════════════════════════ -->
<rect x="28" y="255" width="1010" height="252" rx="8" fill="#FFFBEB" stroke="#D97706" stroke-width="1.5" stroke-dasharray="6,3"/>
<text x="46" y="276" font-size="11" font-weight="700" fill="#92400E">Agent Status  (per worktree, while in‑progress)</text>
<text x="46" y="292" font-size="10" fill="#B45309" font-style="italic">Each worktree tracks its own agent status independently. Guards on transitions read these.</text>

<!-- "waiting" sits ABOVE implementing (y_center=325, top=307, bottom=343) -->
<rect x="185" y="307" width="90" height="36" rx="6" fill="#FEF9C3" stroke="#CA8A04" stroke-width="1.5"/>
<text x="230" y="325" text-anchor="middle" dominant-baseline="central" font-size="12" font-weight="600" fill="#92400E">waiting</text>

<!-- Main row y_center=392 (top=374, bottom=410) -->
<rect x="50" y="374" width="72" height="36" rx="6" fill="#FEF3C7" stroke="#D97706" stroke-width="1.5"/>
<text x="86" y="392" text-anchor="middle" dominant-baseline="central" font-size="12" font-weight="600" fill="#92400E">idle</text>

<rect x="185" y="374" width="120" height="36" rx="6" fill="#FEF3C7" stroke="#D97706" stroke-width="1.5"/>
<text x="245" y="392" text-anchor="middle" dominant-baseline="central" font-size="12" font-weight="600" fill="#92400E">implementing</text>

<rect x="490" y="374" width="104" height="36" rx="6" fill="#D1FAE5" stroke="#059669" stroke-width="1.5"/>
<text x="542" y="392" text-anchor="middle" dominant-baseline="central" font-size="12" font-weight="600" fill="#065F46">submitted</text>

<!-- 1. idle→implementing -->
<line x1="122" y1="392" x2="183" y2="392" stroke="#B45309" stroke-width="1.5" marker-end="url(#arr-a)"/>
<rect x="122" y="377" width="62" height="14" rx="2" fill="#FFFBEB"/>
<text x="153" y="384" text-anchor="middle" dominant-baseline="central" font-size="9" fill="#92400E">feature-do</text>

<!-- 2. implementing↑waiting (right-side up arrow) -->
<line x1="248" y1="374" x2="248" y2="343" stroke="#B45309" stroke-width="1.5" marker-end="url(#arr-a)"/>
<rect x="258" y="352" width="78" height="14" rx="2" fill="#FFFBEB"/>
<text x="297" y="359" dominant-baseline="central" font-size="9" fill="#92400E">needs input</text>

<!-- 3. waiting↓implementing (left-side down arrow) -->
<line x1="222" y1="343" x2="222" y2="374" stroke="#B45309" stroke-width="1.5" marker-end="url(#arr-a)"/>
<rect x="110" y="352" width="94" height="14" rx="2" fill="#FFFBEB"/>
<text x="157" y="359" dominant-baseline="central" font-size="9" fill="#92400E">user responds</text>

<!-- 4. waiting→submitted (arc between the two rows — no crossings) -->
<path d="M 275 325 C 275 358 490 358 490 374" fill="none" stroke="#B45309" stroke-width="1.5" stroke-dasharray="4,2" marker-end="url(#arr-a)"/>
<rect x="336" y="343" width="92" height="14" rx="2" fill="#FFFBEB"/>
<text x="382" y="350" text-anchor="middle" dominant-baseline="central" font-size="9" fill="#92400E">feature-submit</text>

<!-- 5. implementing→submitted (clean straight horizontal — waiting is ABOVE) -->
<line x1="305" y1="392" x2="488" y2="392" stroke="#B45309" stroke-width="1.5" marker-end="url(#arr-a)"/>
<rect x="328" y="376" width="90" height="14" rx="2" fill="#FFFBEB"/>
<text x="373" y="383" text-anchor="middle" dominant-baseline="central" font-size="9" fill="#92400E">feature-submit</text>

<!-- Dashboard note -->
<text x="46" y="428" font-size="10" fill="#92400E">Dashboard action buttons are driven by agent status:</text>
<text x="46" y="443" font-size="10" fill="#B45309">  idle → Open  ·  implementing (session running) → Attach  ·  waiting → Focus (high priority)</text>
<text x="46" y="458" font-size="10" fill="#B45309">  all submitted + Fleet → Evaluate (high priority)  ·  all submitted + Drive → Close / Review</text>
<text x="46" y="473" font-size="10" fill="#B45309">  implementing or waiting → Stop</text>
<text x="46" y="490" font-size="10" fill="#6B7280" font-style="italic">  error state: agent session crashes — use feature-do to restart. Dashboard shows Open for error/idle.</text>

<!-- ═══════════════════════════════════════════════════════════════════ -->
<!-- RESEARCH                                                            -->
<!-- ═══════════════════════════════════════════════════════════════════ -->
<rect x="12" y="550" width="1576" height="204" rx="10" fill="#F5F3FF" stroke="#DDD6FE" stroke-width="1.5"/>
<text x="30" y="574" font-size="13" font-weight="700" fill="#5B21B6" letter-spacing="0.5">RESEARCH</text>

<!-- Pipeline y_center=624 -->
<circle cx="50" cy="624" r="9" fill="#7C3AED"/>
<line x1="59" y1="624" x2="66" y2="624" stroke="#7C3AED" stroke-width="1.5" marker-end="url(#arr-p)"/>

<rect x="68" y="606" width="88" height="36" rx="7" fill="#EDE9FE" stroke="#7C3AED" stroke-width="1.5"/>
<text x="112" y="624" text-anchor="middle" dominant-baseline="central" font-size="13" font-weight="600" fill="#5B21B6">inbox</text>

<!-- inbox→backlog; wider rect for "research-prioritise" -->
<line x1="156" y1="624" x2="258" y2="624" stroke="#7C3AED" stroke-width="1.5" marker-end="url(#arr-p)"/>
<rect x="152" y="589" width="110" height="18" rx="3" fill="#F5F3FF" stroke="#DDD6FE" stroke-width="0.5"/>
<text x="207" y="598" text-anchor="middle" dominant-baseline="central" font-size="10" fill="#5B21B6">research-prioritise</text>

<rect x="260" y="606" width="96" height="36" rx="7" fill="#EDE9FE" stroke="#7C3AED" stroke-width="1.5"/>
<text x="308" y="624" text-anchor="middle" dominant-baseline="central" font-size="13" font-weight="600" fill="#5B21B6">backlog</text>

<!-- backlog→in-progress -->
<line x1="356" y1="624" x2="460" y2="624" stroke="#7C3AED" stroke-width="1.5" marker-end="url(#arr-p)"/>
<rect x="354" y="589" width="108" height="18" rx="3" fill="#F5F3FF" stroke="#DDD6FE" stroke-width="0.5"/>
<text x="408" y="598" text-anchor="middle" dominant-baseline="central" font-size="10" fill="#5B21B6">research-setup</text>

<rect x="462" y="606" width="126" height="36" rx="7" fill="#EDE9FE" stroke="#7C3AED" stroke-width="1.5"/>
<text x="525" y="624" text-anchor="middle" dominant-baseline="central" font-size="13" font-weight="600" fill="#5B21B6">in‑progress</text>

<!-- in-progress→done; wider rect for "research-eval" -->
<line x1="588" y1="624" x2="692" y2="624" stroke="#7C3AED" stroke-width="1.5" marker-end="url(#arr-p)"/>
<rect x="574" y="585" width="130" height="30" rx="3" fill="#F5F3FF" stroke="#DDD6FE" stroke-width="0.5"/>
<text x="639" y="595" text-anchor="middle" dominant-baseline="central" font-size="10" fill="#5B21B6">research-eval</text>
<text x="639" y="607" text-anchor="middle" dominant-baseline="central" font-size="9" fill="#7C3AED" font-style="italic">then research-close</text>

<rect x="694" y="606" width="80" height="36" rx="7" fill="#DCFCE7" stroke="#16A34A" stroke-width="1.5"/>
<text x="734" y="624" text-anchor="middle" dominant-baseline="central" font-size="13" font-weight="600" fill="#15803D">done</text>

<!-- paused: 44px gap from in-progress bottom (642→686) for clear label space -->
<rect x="462" y="686" width="126" height="36" rx="7" fill="#EDE9FE" stroke="#7C3AED" stroke-width="1.5" stroke-dasharray="5,3"/>
<text x="525" y="704" text-anchor="middle" dominant-baseline="central" font-size="13" font-weight="600" fill="#7C3AED">paused</text>

<!-- in-progress→paused (right-side arrow, label to the right) -->
<line x1="548" y1="642" x2="548" y2="684" stroke="#7C3AED" stroke-width="1.5" stroke-dasharray="4,2" marker-end="url(#arr-p)"/>
<rect x="558" y="653" width="90" height="16" rx="3" fill="#F5F3FF" stroke="#DDD6FE" stroke-width="0.5"/>
<text x="603" y="661" dominant-baseline="central" font-size="10" fill="#5B21B6">research-pause</text>

<!-- paused→in-progress (left-side arrow, label to the left) -->
<line x1="502" y1="686" x2="502" y2="644" stroke="#7C3AED" stroke-width="1" stroke-dasharray="4,2" marker-end="url(#arr-p)"/>
<rect x="366" y="656" width="100" height="16" rx="3" fill="#F5F3FF" stroke="#DDD6FE" stroke-width="0.5"/>
<text x="416" y="664" dominant-baseline="central" font-size="10" fill="#5B21B6">research-resume</text>

<!-- Fleet research notes -->
<rect x="800" y="560" width="774" height="182" rx="6" fill="white" stroke="#DDD6FE" stroke-width="1"/>
<text x="820" y="580" font-size="11" font-weight="700" fill="#5B21B6">Fleet Research  (e.g. research-setup 11 cc gg cx)</text>
<text x="820" y="598" font-size="10" fill="#374151">Each agent writes to their own findings file in docs/specs/research-topics/logs/.</text>
<text x="820" y="614" font-size="10" fill="#374151">research-submit marks one agent done (status: submitted).</text>
<text x="820" y="630" font-size="10" fill="#374151">When all agents submitted → research-eval reads all findings,</text>
<text x="820" y="646" font-size="10" fill="#374151">presents consolidated features to user, updates main research doc.</text>
<text x="820" y="662" font-size="10" fill="#374151">research-close --complete moves topic to done.</text>
<text x="820" y="682" font-size="10" fill="#6B7280" font-style="italic">No worktrees for research — all agents work in the main repo,</text>
<text x="820" y="698" font-size="10" fill="#6B7280" font-style="italic">each writing only to their own findings file.</text>

<!-- ═══════════════════════════════════════════════════════════════════ -->
<!-- FEEDBACK  (taller — 70px vertical spread between branches)         -->
<!-- ═══════════════════════════════════════════════════════════════════ -->
<rect x="12" y="770" width="1576" height="254" rx="10" fill="#ECFDF5" stroke="#A7F3D0" stroke-width="1.5"/>
<text x="30" y="794" font-size="13" font-weight="700" fill="#065F46" letter-spacing="0.5">FEEDBACK</text>

<!-- Main line y=878 (aligns with wont-fix middle branch) -->
<circle cx="50" cy="878" r="9" fill="#059669"/>
<line x1="59" y1="878" x2="66" y2="878" stroke="#059669" stroke-width="1.5" marker-end="url(#arr-g)"/>

<rect x="68" y="860" width="88" height="36" rx="7" fill="#D1FAE5" stroke="#059669" stroke-width="1.5"/>
<text x="112" y="878" text-anchor="middle" dominant-baseline="central" font-size="13" font-weight="600" fill="#065F46">inbox</text>

<!-- inbox→triaged; label above the arrow -->
<line x1="156" y1="878" x2="258" y2="878" stroke="#059669" stroke-width="1.5" marker-end="url(#arr-g)"/>
<rect x="154" y="858" width="106" height="18" rx="3" fill="#ECFDF5" stroke="#A7F3D0" stroke-width="0.5"/>
<text x="207" y="867" text-anchor="middle" dominant-baseline="central" font-size="10" fill="#047857">feedback-triage</text>

<rect x="260" y="860" width="88" height="36" rx="7" fill="#D1FAE5" stroke="#059669" stroke-width="1.5"/>
<text x="304" y="878" text-anchor="middle" dominant-baseline="central" font-size="13" font-weight="600" fill="#065F46">triaged</text>

<!-- UPPER BRANCH: triaged→actionable (70px above mid) -->
<line x1="348" y1="866" x2="460" y2="824" stroke="#059669" stroke-width="1.5" marker-end="url(#arr-g)"/>
<rect x="348" y="832" width="112" height="16" rx="3" fill="#ECFDF5" stroke="#A7F3D0" stroke-width="0.5"/>
<text x="404" y="840" text-anchor="middle" dominant-baseline="central" font-size="9" fill="#047857">feedback-promote</text>

<rect x="462" y="798" width="100" height="32" rx="6" fill="#D1FAE5" stroke="#059669" stroke-width="1.5"/>
<text x="512" y="814" text-anchor="middle" dominant-baseline="central" font-size="12" font-weight="600" fill="#065F46">actionable</text>

<line x1="562" y1="814" x2="648" y2="814" stroke="#059669" stroke-width="1.5" marker-end="url(#arr-g)"/>
<rect x="560" y="798" width="90" height="16" rx="3" fill="#ECFDF5" stroke="#A7F3D0" stroke-width="0.5"/>
<text x="605" y="806" text-anchor="middle" dominant-baseline="central" font-size="9" fill="#047857">feedback-close</text>

<rect x="650" y="798" width="80" height="32" rx="6" fill="#DCFCE7" stroke="#16A34A" stroke-width="1.5"/>
<text x="690" y="814" text-anchor="middle" dominant-baseline="central" font-size="12" font-weight="600" fill="#15803D">done</text>

<!-- MIDDLE BRANCH: triaged→wont-fix (horizontal) -->
<line x1="348" y1="878" x2="460" y2="878" stroke="#059669" stroke-width="1.5" marker-end="url(#arr-g)"/>
<rect x="348" y="858" width="112" height="18" rx="3" fill="#ECFDF5" stroke="#A7F3D0" stroke-width="0.5"/>
<text x="404" y="867" text-anchor="middle" dominant-baseline="central" font-size="9" fill="#047857">feedback-wont-fix</text>

<rect x="462" y="862" width="90" height="32" rx="6" fill="#FEE2E2" stroke="#DC2626" stroke-width="1"/>
<text x="507" y="878" text-anchor="middle" dominant-baseline="central" font-size="12" font-weight="600" fill="#B91C1C">wont‑fix</text>

<!-- LOWER BRANCH: triaged→duplicate (70px below mid) -->
<line x1="348" y1="890" x2="460" y2="932" stroke="#059669" stroke-width="1.5" marker-end="url(#arr-g)"/>
<rect x="348" y="914" width="116" height="16" rx="3" fill="#ECFDF5" stroke="#A7F3D0" stroke-width="0.5"/>
<text x="406" y="922" text-anchor="middle" dominant-baseline="central" font-size="9" fill="#047857">feedback-duplicate</text>

<rect x="462" y="926" width="90" height="32" rx="6" fill="#FEF9C3" stroke="#CA8A04" stroke-width="1"/>
<text x="507" y="942" text-anchor="middle" dominant-baseline="central" font-size="12" font-weight="600" fill="#854D0E">duplicate</text>

<!-- State machine notes -->
<rect x="800" y="778" width="774" height="234" rx="6" fill="white" stroke="#A7F3D0" stroke-width="1"/>
<text x="820" y="798" font-size="11" font-weight="700" fill="#065F46">State Machine  (lib/state-machine.js)</text>
<text x="820" y="816" font-size="10" fill="#374151">The state machine is the source of truth for the dashboard UI only.</text>
<text x="820" y="832" font-size="10" fill="#374151">It drives: action buttons per feature card, the /api/action allowlist,</text>
<text x="820" y="848" font-size="10" fill="#374151">and getRecommendedActions() (high-priority actions appear first).</text>
<text x="820" y="868" font-size="10" fill="#6B7280" font-style="italic">CLI commands are unconditional — the state machine does not block CLI usage.</text>
<text x="820" y="884" font-size="10" fill="#6B7280" font-style="italic">isActionValid() is imported but not yet called in the CLI command handlers.</text>
<text x="820" y="904" font-size="10" fill="#374151" font-weight="600">Action modes: terminal → open native tmux session</text>
<text x="820" y="920" font-size="10" fill="#374151" font-weight="600">fire-and-forget → sync CLI call  ·  agent → run agent session</text>
<text x="820" y="940" font-size="10" fill="#6B7280" font-style="italic">(feature-70 replaces WebSocket with native terminal for 'terminal' mode)</text>
<text x="820" y="960" font-size="10" fill="#6B7280" font-style="italic">getSessionAction() decides: create-and-start vs attach vs send-keys</text>
<text x="820" y="976" font-size="10" fill="#6B7280" font-style="italic">based on current tmux session state.</text>

<!-- LEGEND -->
<rect x="12" y="1028" width="1576" height="24" rx="4" fill="#F3F4F6"/>
<text x="30" y="1040" dominant-baseline="central" font-size="10" fill="#374151">●  solid arrow = normal transition</text>
<text x="260" y="1040" dominant-baseline="central" font-size="10" fill="#374151">- - →  dashed = conditional / optional path</text>
<text x="530" y="1040" dominant-baseline="central" font-size="10" fill="#374151">[ ]  guard conditions in brackets</text>
<text x="740" y="1040" dominant-baseline="central" font-size="10" fill="#374151">Drive = single agent on branch  ·  Fleet = multiple agents in worktrees</text>
</svg>
