<svg xmlns="http://www.w3.org/2000/svg" width="1200" height="220" viewBox="0 0 1200 220" role="img" aria-label="Research lifecycle">
  <defs>
    <style>
      .t { font: 14px sans-serif; fill: #0f172a; }
      .h { font: 16px sans-serif; font-weight: 700; fill: #0f172a; }
      .box { fill: #ecfeff; stroke: #0f766e; stroke-width: 2; rx: 10; }
      .line { stroke: #334155; stroke-width: 2; marker-end: url(#a); }
    </style>
    <marker id="a" viewBox="0 0 10 10" refX="8" refY="5" markerWidth="8" markerHeight="8" orient="auto-start-reverse">
      <path d="M 0 0 L 10 5 L 0 10 z" fill="#334155" />
    </marker>
  </defs>
  <text x="24" y="34" class="h">Research Lifecycle</text>
  <rect x="24" y="70" width="170" height="54" class="box" /><text x="48" y="102" class="t">research-create</text>
  <rect x="230" y="70" width="190" height="54" class="box" /><text x="258" y="102" class="t">research-prioritise</text>
  <rect x="455" y="70" width="170" height="54" class="box" /><text x="486" y="102" class="t">research-start</text>
  <rect x="660" y="70" width="140" height="54" class="box" /><text x="694" y="102" class="t">research-do</text>
  <rect x="835" y="70" width="170" height="54" class="box" /><text x="859" y="102" class="t">research-synthesize</text>
  <rect x="1040" y="70" width="140" height="54" class="box" /><text x="1073" y="102" class="t">research-close</text>
  <line x1="194" y1="97" x2="226" y2="97" class="line" />
  <line x1="420" y1="97" x2="451" y2="97" class="line" />
  <line x1="625" y1="97" x2="656" y2="97" class="line" />
  <line x1="800" y1="97" x2="831" y2="97" class="line" />
  <line x1="1005" y1="97" x2="1036" y2="97" class="line" />
</svg>
